<svg xmlns="http://www.w3.org/2000/svg" xmlns:xlink="http://www.w3.org/1999/xlink" width="1440" height="1055" viewBox="0 0 1440 1055">
  <defs>
    <clipPath id="clip-path">
      <rect id="Background" width="1440" height="1055" fill="#fff"/>
    </clipPath>
  </defs>
  <g id="Mask_Group_12" data-name="Mask Group 12" clip-path="url(#clip-path)">
    <g id="Mataura" transform="translate(-437.491 -517.226)">
      <rect id="Shape" width="998.761" height="1050.689" transform="matrix(0.731, 0.682, -0.682, 0.731, 1083.47, 1152.152)" fill="#f83c1e"/>
      <rect id="Shape-2" data-name="Shape" width="1287.83" height="1050.539" transform="matrix(0.731, 0.682, -0.682, 0.731, 1480.136, 158.557)" fill="#2c99b0"/>
      <path id="Shape-3" data-name="Shape" d="M725.9,1030.1a23.95,23.95,0,0,1,12.453-31.946,488.964,488.964,0,0,0,193.179-151.87,25.105,25.105,0,0,1,29.771-7.757c61,25.952,132.123.821,162.011-57.244s8.12-128.823-49.584-161.175c-19.9-11.181-14.838-40.5,7.712-44.7C1208.822,551.732,1302.4,442.431,1302.4,314.227c0-146.844-121.861-265.884-272.185-265.884-81.456-.092-158.651,35.541-210.3,97.073a25.128,25.128,0,0,1-32.324,5.537A495.329,495.329,0,0,0,538.478,84.408c-270.064,0-488.99,213.863-488.99,477.686q0,9.412.372,18.777c.528,13.34-10.114,24.572-23.77,25.088S.936,596.078.408,582.738Q0,572.437,0,562.095C0,271.573,241.082,36.065,538.478,36.065A546.269,546.269,0,0,1,795.252,99.612C856.022,35.985,941.136-.1,1030.217,0c177.655,0,321.673,140.684,321.673,314.227,0,134.691-87.385,251.708-212.59,295.712a168.319,168.319,0,0,1,46.844,116.351c0,94.293-78.251,170.734-174.779,170.734a178.582,178.582,0,0,1-51.425-7.52,538.739,538.739,0,0,1-201.33,152.76,25.265,25.265,0,0,1-18.933.541,24.492,24.492,0,0,1-13.77-12.705Z" transform="translate(0 181.477)" fill="#d0e215"/>
      <path id="Shape-4" data-name="Shape" d="M8.091,920.811a22.651,22.651,0,0,1-2.3-32.478,23.956,23.956,0,0,1,33.248-2.244C128.163,962.082,242.5,1003.87,360.8,1003.684c270.713,0,490.168-214.376,490.168-478.822S631.516,46.041,360.8,46.041A497.334,497.334,0,0,0,137.483,98.5a23.837,23.837,0,0,1-31.723-9.982,22.767,22.767,0,0,1,10.218-30.988A545.388,545.388,0,0,1,360.8,0C657.546,0,898.1,234.989,898.1,524.862s-240.557,524.862-537.3,524.862c-129.675.186-255.01-45.622-352.712-128.913Z" transform="translate(1298.081 0)" fill="#e95272"/>
      <rect id="Shape-5" data-name="Shape" width="999.108" height="382.727" transform="matrix(0.731, 0.682, -0.682, 0.731, 1332.011, 1126.329)" fill="#f6b800"/>
      <ellipse id="Shape-6" data-name="Shape" cx="196.381" cy="191.836" rx="196.381" ry="191.836" transform="translate(283.182 908.534)" fill="#423783"/>
      <ellipse id="Shape-7" data-name="Shape" cx="21.995" cy="21.486" rx="21.995" ry="21.486" transform="translate(727.004 1179.406)" fill="#2c99b0"/>
      <path id="Shape-8" data-name="Shape" d="M249.236,135.829a12.832,12.832,0,0,1,13.045-13.045,13.579,13.579,0,0,1,13.354,13.354,12.832,12.832,0,0,1-13.045,13.045A13.579,13.579,0,0,1,249.236,135.829Zm-117.242-1.373a12.832,12.832,0,0,1,13.045-13.045,13.579,13.579,0,0,1,13.354,13.354,12.832,12.832,0,0,1-13.045,13.045A13.579,13.579,0,0,1,131.994,134.456ZM14.752,133.083A12.832,12.832,0,0,1,27.8,120.038a13.579,13.579,0,0,1,13.354,13.354,12.832,12.832,0,0,1-13.045,13.045A13.579,13.579,0,0,1,14.752,133.083Zm351.55,4.053a12.832,12.832,0,0,1,13.045-13.045A13.579,13.579,0,0,1,392.7,137.445a12.832,12.832,0,0,1-13.045,13.045A13.579,13.579,0,0,1,366.3,137.136ZM.407,35.1A25.665,25.665,0,0,1,26.5,9.008,27.158,27.158,0,0,1,53.2,35.716a25.665,25.665,0,0,1-26.09,26.09A27.158,27.158,0,0,1,.407,35.1Zm224.23-5.973a25.665,25.665,0,0,1,26.09-26.09,27.158,27.158,0,0,1,26.708,26.708,25.665,25.665,0,0,1-26.09,26.09,27.158,27.158,0,0,1-26.708-26.708ZM105.842,27.733a25.665,25.665,0,0,1,26.09-26.09A27.158,27.158,0,0,1,158.64,28.352a25.665,25.665,0,0,1-26.09,26.09,27.158,27.158,0,0,1-26.708-26.708Zm246.013,2.737a25.665,25.665,0,0,1,26.09-26.09,27.158,27.158,0,0,1,26.708,26.708,25.665,25.665,0,0,1-26.09,26.09,27.158,27.158,0,0,1-26.708-26.708Z" transform="translate(1464.457 829.649) rotate(-45)" fill="#ffeaab"/>
    </g>
  </g>
</svg>
