<svg xmlns="http://www.w3.org/2000/svg" width="1440" height="633" viewBox="0 0 1440 633">
  <g id="Group_9921" data-name="Group 9921" transform="translate(0 -6843)">
    <rect id="Rectangle_8612" data-name="Rectangle 8612" width="1440" height="633" transform="translate(0 6843)" fill="#fff"/>
    <path id="Shape" d="M220.708,320.62a7.523,7.523,0,0,1,3.786-9.943,149.261,149.261,0,0,0,58.735-47.27,7.523,7.523,0,0,1,9.052-2.414,38.1,38.1,0,0,0,34.183-67.983,7.523,7.523,0,0,1,2.345-13.912A82.765,82.765,0,1,0,249.293,45.26a7.519,7.519,0,0,1-9.828,1.723A148.713,148.713,0,0,0,15.047,174.952q0,2.93.113,5.844a7.523,7.523,0,1,1-15.036.581Q0,178.171,0,174.952A163.772,163.772,0,0,1,241.793,31,97.814,97.814,0,1,1,346.4,189.844a53.159,53.159,0,0,1-54.534,87.014A164.261,164.261,0,0,1,230.652,324.4a7.518,7.518,0,0,1-9.943-3.786Z" transform="translate(987 6873.935)" fill="#d0e215"/>
  </g>
</svg>
